<svg xmlns="http://www.w3.org/2000/svg" xmlns:xlink="http://www.w3.org/1999/xlink" width="1000" zoomAndPan="magnify" viewBox="0 0 750 149.999998" height="200" preserveAspectRatio="xMidYMid meet" version="1.0"><defs><g/></defs><path fill="#ffd119" d="M 640.769531 15.117188 C 640.511719 15.121094 640.246094 15.132812 639.984375 15.152344 C 629.507812 16.960938 623.746094 28.039062 622.910156 37.808594 C 621.691406 46.675781 625.597656 58.066406 635.332031 60.054688 C 636.742188 60.324219 638.210938 60.199219 639.589844 59.824219 C 651.3125 55.894531 656.554688 42.015625 654.863281 30.515625 C 654.371094 23.089844 648.769531 15.015625 640.769531 15.117188 Z M 596.351562 15.59375 C 589.835938 15.753906 584.761719 22.359375 583.730469 28.570312 C 581.554688 40.875 587.152344 56.164062 599.972656 60.054688 C 601.171875 60.316406 602.414062 60.34375 603.625 60.15625 C 612.289062 58.710938 615.960938 48.996094 615.597656 41.15625 C 615.339844 30.8125 609.964844 18.847656 599.222656 15.941406 C 598.238281 15.679688 597.28125 15.570312 596.351562 15.59375 Z M 669.15625 50.539062 C 657.886719 51.214844 650.160156 62.457031 649.058594 72.957031 C 647.566406 80.53125 651.605469 90.660156 660.246094 91.265625 C 672.292969 91.117188 680.511719 78.242188 680.851562 67.164062 C 681.613281 59.839844 677.300781 50.945312 669.15625 50.539062 Z M 570.515625 53.035156 C 565.722656 52.992188 561.007812 55.867188 559.441406 60.738281 C 555.261719 73.777344 563.652344 90.289062 577.460938 93.027344 C 583.226562 94.015625 588.289062 89.589844 589.71875 84.265625 C 592.746094 72.875 586.527344 59.652344 576 54.480469 C 574.285156 53.519531 572.394531 53.054688 570.515625 53.039062 Z M 621.039062 76.414062 C 611.636719 76.433594 602.09375 81.203125 596.003906 88.304688 C 589.433594 96.578125 584.046875 106.207031 581.941406 116.652344 C 579.382812 124.171875 585.183594 132.824219 593.21875 132.875 C 602.886719 133.144531 611.195312 126.503906 620.808594 126.011719 C 628.964844 124.769531 636.269531 129.011719 643.601562 131.789062 C 649.847656 134.457031 658.472656 133.433594 661.660156 126.714844 C 664.167969 119.867188 660.476562 112.5625 657.421875 106.480469 C 651.183594 96.609375 644.503906 86.234375 634.28125 80.070312 C 630.183594 77.527344 625.628906 76.402344 621.039062 76.414062 Z M 621.039062 76.414062 " fill-opacity="1" fill-rule="nonzero"/><g fill="#ffd119" fill-opacity="1"><g transform="translate(92.935173, 105.14862)"><g><path d="M 48.265625 0 L 48.265625 -30.890625 L 14.6875 -30.890625 L 14.6875 0 L 7.5625 0 L 7.5625 -60.703125 L 14.6875 -60.703125 L 14.6875 -31.90625 L 48.265625 -31.90625 L 48.265625 -60.703125 L 55.40625 -60.703125 L 55.40625 0 Z M 48.265625 0 "/></g></g></g><g fill="#ffd119" fill-opacity="1"><g transform="translate(155.896073, 105.14862)"><g><path d="M 36.015625 -1.09375 C 36.679688 -1.09375 37.304688 -1.457031 37.890625 -2.1875 C 38.484375 -2.914062 38.921875 -4.003906 39.203125 -5.453125 L 40.21875 -5.453125 C 39.820312 -2.929688 39.050781 -1.238281 37.90625 -0.375 C 36.757812 0.488281 35.457031 0.921875 34 0.921875 C 29.75 0.921875 27.625 -1.957031 27.625 -7.71875 C 25.71875 -5.707031 23.96875 -4.128906 22.375 -2.984375 C 20.78125 -1.835938 19.320312 -0.96875 18 -0.375 C 16.6875 0.207031 15.5 0.566406 14.4375 0.703125 C 13.375 0.847656 12.453125 0.921875 11.671875 0.921875 C 8.304688 0.921875 5.828125 0.0976562 4.234375 -1.546875 C 2.640625 -3.203125 1.84375 -5.234375 1.84375 -7.640625 C 1.84375 -10.210938 2.664062 -12.40625 4.3125 -14.21875 C 5.96875 -16.039062 7.984375 -17.566406 10.359375 -18.796875 C 12.742188 -20.035156 15.304688 -21.015625 18.046875 -21.734375 C 20.785156 -22.460938 23.25 -23 25.4375 -23.34375 L 27.625 -23.671875 L 27.625 -27.953125 C 27.625 -29.972656 27.46875 -31.75 27.15625 -33.28125 C 26.851562 -34.820312 26.296875 -36.125 25.484375 -37.1875 C 24.671875 -38.25 23.59375 -39.046875 22.25 -39.578125 C 20.90625 -40.109375 19.195312 -40.375 17.125 -40.375 C 15.84375 -40.375 14.597656 -40.207031 13.390625 -39.875 C 12.179688 -39.539062 11.101562 -39.066406 10.15625 -38.453125 C 8.976562 -37.671875 8.039062 -36.71875 7.34375 -35.59375 C 6.644531 -34.476562 6.296875 -33.273438 6.296875 -31.984375 C 6.296875 -30.585938 6.40625 -29.550781 6.625 -28.875 L 5.546875 -28.875 C 5.429688 -29.21875 5.34375 -29.664062 5.28125 -30.21875 C 5.226562 -30.78125 5.203125 -31.367188 5.203125 -31.984375 C 5.203125 -33.273438 5.566406 -34.578125 6.296875 -35.890625 C 7.023438 -37.203125 8.171875 -38.335938 9.734375 -39.296875 C 10.742188 -39.910156 11.929688 -40.410156 13.296875 -40.796875 C 14.671875 -41.191406 16.113281 -41.390625 17.625 -41.390625 C 19.644531 -41.390625 21.601562 -41.175781 23.5 -40.75 C 25.40625 -40.332031 27.097656 -39.617188 28.578125 -38.609375 C 30.066406 -37.609375 31.242188 -36.238281 32.109375 -34.5 C 32.972656 -32.769531 33.40625 -30.585938 33.40625 -27.953125 L 33.40625 -5.703125 C 33.40625 -5.148438 33.429688 -4.609375 33.484375 -4.078125 C 33.546875 -3.546875 33.675781 -3.054688 33.875 -2.609375 C 34.070312 -2.160156 34.335938 -1.796875 34.671875 -1.515625 C 35.003906 -1.234375 35.453125 -1.09375 36.015625 -1.09375 Z M 27.625 -22.671875 C 25.101562 -22.222656 22.691406 -21.644531 20.390625 -20.9375 C 18.097656 -20.238281 16.082031 -19.34375 14.34375 -18.25 C 12.613281 -17.164062 11.226562 -15.851562 10.1875 -14.3125 C 9.15625 -12.769531 8.640625 -10.910156 8.640625 -8.734375 C 8.640625 -6.160156 9.296875 -4.351562 10.609375 -3.3125 C 11.929688 -2.28125 13.488281 -1.765625 15.28125 -1.765625 C 16.289062 -1.765625 17.378906 -2 18.546875 -2.46875 C 19.722656 -2.945312 20.867188 -3.550781 21.984375 -4.28125 C 23.109375 -5.007812 24.160156 -5.789062 25.140625 -6.625 C 26.117188 -7.46875 26.945312 -8.28125 27.625 -9.0625 Z M 27.625 -22.671875 "/></g></g></g><g fill="#ffd119" fill-opacity="1"><g transform="translate(196.526852, 105.14862)"><g><path d="M 11.671875 -41.5625 L 11.671875 -36.09375 C 13.015625 -37.332031 14.765625 -38.523438 16.921875 -39.671875 C 19.078125 -40.816406 21.46875 -41.390625 24.09375 -41.390625 C 26.164062 -41.390625 28.304688 -41.050781 30.515625 -40.375 C 32.722656 -39.707031 34.738281 -38.5625 36.5625 -36.9375 C 38.382812 -35.3125 39.878906 -33.140625 41.046875 -30.421875 C 42.222656 -27.710938 42.8125 -24.34375 42.8125 -20.3125 C 42.8125 -17.40625 42.378906 -14.675781 41.515625 -12.125 C 40.648438 -9.582031 39.375 -7.34375 37.6875 -5.40625 C 36.007812 -3.476562 33.9375 -1.953125 31.46875 -0.828125 C 29.007812 0.285156 26.1875 0.867188 23 0.921875 C 21.320312 0.921875 19.472656 0.710938 17.453125 0.296875 C 15.441406 -0.117188 13.515625 -0.914062 11.671875 -2.09375 L 11.671875 18.640625 L 5.875 18.640625 L 5.875 -39.625 Z M 36.015625 -20.0625 C 36.015625 -26.832031 34.78125 -31.742188 32.3125 -34.796875 C 29.851562 -37.847656 26.441406 -39.375 22.078125 -39.375 C 20.398438 -39.375 18.609375 -38.910156 16.703125 -37.984375 C 14.804688 -37.066406 13.128906 -36.046875 11.671875 -34.921875 L 11.671875 -3.1875 C 12.734375 -2.570312 14.019531 -2.066406 15.53125 -1.671875 C 17.039062 -1.285156 18.890625 -1.09375 21.078125 -1.09375 C 23.140625 -1.09375 25.082031 -1.5 26.90625 -2.3125 C 28.726562 -3.125 30.3125 -4.328125 31.65625 -5.921875 C 33 -7.515625 34.0625 -9.484375 34.84375 -11.828125 C 35.625 -14.179688 36.015625 -16.925781 36.015625 -20.0625 Z M 36.015625 -20.0625 "/></g></g></g><g fill="#ffd119" fill-opacity="1"><g transform="translate(242.278431, 105.14862)"><g><path d="M 11.671875 -41.5625 L 11.671875 -36.09375 C 13.015625 -37.332031 14.765625 -38.523438 16.921875 -39.671875 C 19.078125 -40.816406 21.46875 -41.390625 24.09375 -41.390625 C 26.164062 -41.390625 28.304688 -41.050781 30.515625 -40.375 C 32.722656 -39.707031 34.738281 -38.5625 36.5625 -36.9375 C 38.382812 -35.3125 39.878906 -33.140625 41.046875 -30.421875 C 42.222656 -27.710938 42.8125 -24.34375 42.8125 -20.3125 C 42.8125 -17.40625 42.378906 -14.675781 41.515625 -12.125 C 40.648438 -9.582031 39.375 -7.34375 37.6875 -5.40625 C 36.007812 -3.476562 33.9375 -1.953125 31.46875 -0.828125 C 29.007812 0.285156 26.1875 0.867188 23 0.921875 C 21.320312 0.921875 19.472656 0.710938 17.453125 0.296875 C 15.441406 -0.117188 13.515625 -0.914062 11.671875 -2.09375 L 11.671875 18.640625 L 5.875 18.640625 L 5.875 -39.625 Z M 36.015625 -20.0625 C 36.015625 -26.832031 34.78125 -31.742188 32.3125 -34.796875 C 29.851562 -37.847656 26.441406 -39.375 22.078125 -39.375 C 20.398438 -39.375 18.609375 -38.910156 16.703125 -37.984375 C 14.804688 -37.066406 13.128906 -36.046875 11.671875 -34.921875 L 11.671875 -3.1875 C 12.734375 -2.570312 14.019531 -2.066406 15.53125 -1.671875 C 17.039062 -1.285156 18.890625 -1.09375 21.078125 -1.09375 C 23.140625 -1.09375 25.082031 -1.5 26.90625 -2.3125 C 28.726562 -3.125 30.3125 -4.328125 31.65625 -5.921875 C 33 -7.515625 34.0625 -9.484375 34.84375 -11.828125 C 35.625 -14.179688 36.015625 -16.925781 36.015625 -20.0625 Z M 36.015625 -20.0625 "/></g></g></g><g fill="#ffd119" fill-opacity="1"><g transform="translate(288.029995, 105.14862)"><g><path d="M 23.09375 -5.28125 C 24.539062 -9.207031 25.78125 -12.597656 26.8125 -15.453125 C 27.851562 -18.304688 28.738281 -20.765625 29.46875 -22.828125 C 30.195312 -24.898438 30.8125 -26.675781 31.3125 -28.15625 C 31.8125 -29.644531 32.257812 -31.03125 32.65625 -32.3125 C 33.050781 -33.601562 33.429688 -34.878906 33.796875 -36.140625 C 34.160156 -37.398438 34.566406 -38.8125 35.015625 -40.375 L 37.859375 -40.375 C 37.191406 -38.8125 36.410156 -36.894531 35.515625 -34.625 C 34.617188 -32.363281 33.664062 -29.972656 32.65625 -27.453125 C 31.644531 -24.929688 30.648438 -22.367188 29.671875 -19.765625 C 28.691406 -17.160156 27.785156 -14.710938 26.953125 -12.421875 C 26.054688 -10.015625 25.0625 -7.46875 23.96875 -4.78125 C 22.875 -2.09375 21.570312 1.09375 20.0625 4.78125 C 19.226562 6.851562 18.347656 8.851562 17.421875 10.78125 C 16.492188 12.71875 15.441406 14.410156 14.265625 15.859375 C 13.316406 16.929688 12.253906 17.800781 11.078125 18.46875 C 9.898438 19.144531 8.503906 19.484375 6.890625 19.484375 C 5.648438 19.484375 4.625 19.328125 3.8125 19.015625 C 3.007812 18.703125 2.296875 18.378906 1.671875 18.046875 L 2.1875 14.53125 C 3.414062 15.8125 4.519531 16.617188 5.5 16.953125 C 6.476562 17.296875 7.332031 17.46875 8.0625 17.46875 C 9.175781 17.46875 10.125 17.296875 10.90625 16.953125 C 11.695312 16.617188 12.507812 15.976562 13.34375 15.03125 C 14.351562 13.6875 15.457031 11.851562 16.65625 9.53125 C 17.863281 7.207031 18.972656 4.503906 19.984375 1.421875 C 18.640625 -1.535156 17.15625 -4.804688 15.53125 -8.390625 C 13.90625 -11.972656 12.253906 -15.640625 10.578125 -19.390625 C 8.898438 -23.140625 7.265625 -26.816406 5.671875 -30.421875 C 4.078125 -34.035156 2.609375 -37.351562 1.265625 -40.375 L 7.640625 -40.375 Z M 23.09375 -5.28125 "/></g></g></g><g fill="#ffd119" fill-opacity="1"><g transform="translate(327.569465, 105.14862)"><g/></g></g><g fill="#ffd119" fill-opacity="1"><g transform="translate(346.373781, 105.14862)"><g><path d="M 48.609375 -43.65625 C 48.609375 -41.132812 48.085938 -38.710938 47.046875 -36.390625 C 46.015625 -34.066406 44.488281 -32.007812 42.46875 -30.21875 C 40.457031 -28.425781 37.96875 -27 35 -25.9375 C 32.039062 -24.875 28.628906 -24.34375 24.765625 -24.34375 C 23.253906 -24.34375 21.644531 -24.398438 19.9375 -24.515625 C 18.226562 -24.628906 16.476562 -24.910156 14.6875 -25.359375 L 14.6875 0 L 7.5625 0 L 7.5625 -60.703125 L 8.3125 -60.703125 C 11 -60.753906 13.910156 -60.921875 17.046875 -61.203125 C 20.179688 -61.484375 23.035156 -61.625 25.609375 -61.625 C 30.023438 -61.625 33.71875 -61.078125 36.6875 -59.984375 C 39.65625 -58.890625 42.019531 -57.488281 43.78125 -55.78125 C 45.539062 -54.070312 46.785156 -52.140625 47.515625 -49.984375 C 48.242188 -47.835938 48.609375 -45.726562 48.609375 -43.65625 Z M 40.796875 -43.65625 C 40.796875 -49.25 39.351562 -53.472656 36.46875 -56.328125 C 33.59375 -59.179688 29.523438 -60.609375 24.265625 -60.609375 C 22.691406 -60.609375 21.09375 -60.492188 19.46875 -60.265625 C 17.851562 -60.046875 16.257812 -59.742188 14.6875 -59.359375 L 14.6875 -26.28125 C 16.476562 -25.832031 18.1875 -25.566406 19.8125 -25.484375 C 21.4375 -25.398438 22.976562 -25.359375 24.4375 -25.359375 C 29.300781 -25.359375 33.242188 -26.910156 36.265625 -30.015625 C 39.285156 -33.117188 40.796875 -37.664062 40.796875 -43.65625 Z M 40.796875 -43.65625 "/></g></g></g><g fill="#ffd119" fill-opacity="1"><g transform="translate(398.3375, 105.14862)"><g><path d="M 36.015625 -1.09375 C 36.679688 -1.09375 37.304688 -1.457031 37.890625 -2.1875 C 38.484375 -2.914062 38.921875 -4.003906 39.203125 -5.453125 L 40.21875 -5.453125 C 39.820312 -2.929688 39.050781 -1.238281 37.90625 -0.375 C 36.757812 0.488281 35.457031 0.921875 34 0.921875 C 29.75 0.921875 27.625 -1.957031 27.625 -7.71875 C 25.71875 -5.707031 23.96875 -4.128906 22.375 -2.984375 C 20.78125 -1.835938 19.320312 -0.96875 18 -0.375 C 16.6875 0.207031 15.5 0.566406 14.4375 0.703125 C 13.375 0.847656 12.453125 0.921875 11.671875 0.921875 C 8.304688 0.921875 5.828125 0.0976562 4.234375 -1.546875 C 2.640625 -3.203125 1.84375 -5.234375 1.84375 -7.640625 C 1.84375 -10.210938 2.664062 -12.40625 4.3125 -14.21875 C 5.96875 -16.039062 7.984375 -17.566406 10.359375 -18.796875 C 12.742188 -20.035156 15.304688 -21.015625 18.046875 -21.734375 C 20.785156 -22.460938 23.25 -23 25.4375 -23.34375 L 27.625 -23.671875 L 27.625 -27.953125 C 27.625 -29.972656 27.46875 -31.75 27.15625 -33.28125 C 26.851562 -34.820312 26.296875 -36.125 25.484375 -37.1875 C 24.671875 -38.25 23.59375 -39.046875 22.25 -39.578125 C 20.90625 -40.109375 19.195312 -40.375 17.125 -40.375 C 15.84375 -40.375 14.597656 -40.207031 13.390625 -39.875 C 12.179688 -39.539062 11.101562 -39.066406 10.15625 -38.453125 C 8.976562 -37.671875 8.039062 -36.71875 7.34375 -35.59375 C 6.644531 -34.476562 6.296875 -33.273438 6.296875 -31.984375 C 6.296875 -30.585938 6.40625 -29.550781 6.625 -28.875 L 5.546875 -28.875 C 5.429688 -29.21875 5.34375 -29.664062 5.28125 -30.21875 C 5.226562 -30.78125 5.203125 -31.367188 5.203125 -31.984375 C 5.203125 -33.273438 5.566406 -34.578125 6.296875 -35.890625 C 7.023438 -37.203125 8.171875 -38.335938 9.734375 -39.296875 C 10.742188 -39.910156 11.929688 -40.410156 13.296875 -40.796875 C 14.671875 -41.191406 16.113281 -41.390625 17.625 -41.390625 C 19.644531 -41.390625 21.601562 -41.175781 23.5 -40.75 C 25.40625 -40.332031 27.097656 -39.617188 28.578125 -38.609375 C 30.066406 -37.609375 31.242188 -36.238281 32.109375 -34.5 C 32.972656 -32.769531 33.40625 -30.585938 33.40625 -27.953125 L 33.40625 -5.703125 C 33.40625 -5.148438 33.429688 -4.609375 33.484375 -4.078125 C 33.546875 -3.546875 33.675781 -3.054688 33.875 -2.609375 C 34.070312 -2.160156 34.335938 -1.796875 34.671875 -1.515625 C 35.003906 -1.234375 35.453125 -1.09375 36.015625 -1.09375 Z M 27.625 -22.671875 C 25.101562 -22.222656 22.691406 -21.644531 20.390625 -20.9375 C 18.097656 -20.238281 16.082031 -19.34375 14.34375 -18.25 C 12.613281 -17.164062 11.226562 -15.851562 10.1875 -14.3125 C 9.15625 -12.769531 8.640625 -10.910156 8.640625 -8.734375 C 8.640625 -6.160156 9.296875 -4.351562 10.609375 -3.3125 C 11.929688 -2.28125 13.488281 -1.765625 15.28125 -1.765625 C 16.289062 -1.765625 17.378906 -2 18.546875 -2.46875 C 19.722656 -2.945312 20.867188 -3.550781 21.984375 -4.28125 C 23.109375 -5.007812 24.160156 -5.789062 25.140625 -6.625 C 26.117188 -7.46875 26.945312 -8.28125 27.625 -9.0625 Z M 27.625 -22.671875 "/></g></g></g><g fill="#ffd119" fill-opacity="1"><g transform="translate(438.968267, 105.14862)"><g><path d="M 31.5625 -40.375 C 32.007812 -39.03125 33.320312 -35.476562 35.5 -29.71875 C 37.6875 -23.957031 40.6875 -16.175781 44.5 -6.375 L 50.375 -23 C 50.988281 -24.675781 51.585938 -26.4375 52.171875 -28.28125 C 52.765625 -30.132812 53.3125 -31.859375 53.8125 -33.453125 C 54.3125 -35.046875 54.726562 -36.472656 55.0625 -37.734375 C 55.40625 -38.992188 55.632812 -39.875 55.75 -40.375 L 58.59375 -40.375 C 58.3125 -39.757812 57.890625 -38.804688 57.328125 -37.515625 C 56.773438 -36.234375 56.160156 -34.753906 55.484375 -33.078125 C 54.816406 -31.398438 54.09375 -29.566406 53.3125 -27.578125 C 52.53125 -25.585938 51.773438 -23.585938 51.046875 -21.578125 L 42.984375 0.921875 L 41.71875 0.921875 L 30.890625 -26.78125 C 30.273438 -25.269531 29.644531 -23.660156 29 -21.953125 C 28.363281 -20.242188 27.625 -18.3125 26.78125 -16.15625 C 25.9375 -14 24.96875 -11.535156 23.875 -8.765625 C 22.789062 -6.003906 21.519531 -2.773438 20.0625 0.921875 L 18.890625 0.921875 L 1.671875 -40.375 L 7.640625 -40.375 L 21.75 -6.296875 C 23.09375 -9.992188 24.488281 -13.6875 25.9375 -17.375 C 27.394531 -21.070312 28.851562 -24.765625 30.3125 -28.453125 L 25.6875 -40.375 Z M 31.5625 -40.375 "/></g></g></g><g fill="#ffd119" fill-opacity="1"><g transform="translate(498.823087, 105.14862)"><g><path d="M 30.640625 -11.078125 C 30.640625 -9.234375 30.21875 -7.523438 29.375 -5.953125 C 28.539062 -4.390625 27.425781 -3.050781 26.03125 -1.9375 C 24.90625 -1.039062 23.503906 -0.34375 21.828125 0.15625 C 20.148438 0.664062 18.382812 0.921875 16.53125 0.921875 C 15.019531 0.921875 13.484375 0.65625 11.921875 0.125 C 10.359375 -0.40625 8.929688 -1.144531 7.640625 -2.09375 C 6.515625 -2.9375 5.503906 -3.945312 4.609375 -5.125 C 3.722656 -6.300781 2.96875 -7.5625 2.34375 -8.90625 L 3.28125 -9.40625 C 4.613281 -6.9375 6.289062 -4.976562 8.3125 -3.53125 C 10.550781 -1.90625 13.289062 -1.09375 16.53125 -1.09375 C 17.425781 -1.09375 18.429688 -1.234375 19.546875 -1.515625 C 20.671875 -1.796875 21.597656 -2.1875 22.328125 -2.6875 C 24.453125 -4.082031 25.515625 -6.039062 25.515625 -8.5625 C 25.515625 -9.625 25.289062 -10.570312 24.84375 -11.40625 C 24.394531 -12.25 23.820312 -13.003906 23.125 -13.671875 C 22.425781 -14.347656 21.65625 -14.9375 20.8125 -15.4375 C 19.976562 -15.945312 19.140625 -16.425781 18.296875 -16.875 L 12.421875 -20.0625 C 9.398438 -21.738281 7.21875 -23.375 5.875 -24.96875 C 4.53125 -26.570312 3.859375 -28.546875 3.859375 -30.890625 C 3.859375 -32.847656 4.234375 -34.5 4.984375 -35.84375 C 5.742188 -37.1875 6.710938 -38.265625 7.890625 -39.078125 C 9.066406 -39.890625 10.367188 -40.476562 11.796875 -40.84375 C 13.222656 -41.207031 14.578125 -41.390625 15.859375 -41.390625 C 17.765625 -41.390625 19.679688 -41.125 21.609375 -40.59375 C 23.546875 -40.0625 25.410156 -39.265625 27.203125 -38.203125 L 26.703125 -34.171875 C 26.253906 -34.785156 25.707031 -35.457031 25.0625 -36.1875 C 24.414062 -36.914062 23.644531 -37.585938 22.75 -38.203125 C 21.851562 -38.816406 20.84375 -39.332031 19.71875 -39.75 C 18.601562 -40.164062 17.375 -40.375 16.03125 -40.375 C 14.851562 -40.375 13.84375 -40.191406 13 -39.828125 C 12.164062 -39.472656 11.46875 -38.984375 10.90625 -38.359375 C 10.351562 -37.742188 9.9375 -37.046875 9.65625 -36.265625 C 9.375 -35.484375 9.234375 -34.703125 9.234375 -33.921875 C 9.234375 -32.128906 9.625 -30.742188 10.40625 -29.765625 C 11.1875 -28.785156 12.054688 -27.988281 13.015625 -27.375 C 13.847656 -26.863281 14.8125 -26.328125 15.90625 -25.765625 C 17 -25.210938 18.019531 -24.710938 18.96875 -24.265625 C 20.644531 -23.421875 22.179688 -22.578125 23.578125 -21.734375 C 24.984375 -20.898438 26.21875 -19.976562 27.28125 -18.96875 C 28.34375 -17.96875 29.164062 -16.820312 29.75 -15.53125 C 30.34375 -14.238281 30.640625 -12.753906 30.640625 -11.078125 Z M 30.640625 -11.078125 "/></g></g></g></svg>